<svg height="120px" width="90px" fill="#D9D9D9" xmlns="http://www.w3.org/2000/svg" xmlns:xlink="http://www.w3.org/1999/xlink" version="1.1" x="0px" y="0px" viewBox="0 0 48 48" enable-background="new 0 0 48 48" xml:space="preserve"><g><path d="M36.661,45.82c-6.751,0-12.245-5.467-12.245-12.187s5.494-12.186,12.245-12.186c0.767,0,1.514,0.079,2.241,0.214V9.601   c0-0.546-0.441-0.988-0.988-0.988h-1.376c-1.444-1.08-2.271-2.269-2.437-3.541c-0.18-1.365,0.427-2.537,0.785-3.095h1.321   c0.546,0,0.988-0.442,0.988-0.989S36.754,0,36.208,0H4.983C2.281,0,0.082,2.153,0.082,4.798v0.994c0,0.178,0.033,0.348,0.053,0.521   c-0.03,0.095-0.053,0.194-0.053,0.299v37.254c0,0.12,0.028,0.23,0.066,0.336c0.006,0.014,0.003,0.029,0.009,0.043   c0.032,0.079,0.458,1.063,1.483,2.004c0.03,0.03,0.051,0.069,0.081,0.099c0.31,0.299,0.67,0.528,1.042,0.727   c0.086,0.05,0.175,0.1,0.266,0.146c0.004,0.002,0.008,0.004,0.013,0.006C3.913,47.679,5.008,48,6.378,48   c0.326,0,0.667-0.019,1.025-0.058h30.51c0.547,0,0.988-0.442,0.988-0.989v-1.347C38.175,45.741,37.428,45.82,36.661,45.82z    M4.983,8.613c-0.144,0-0.282-0.021-0.42-0.041C4.027,8.481,3.108,8.167,2.448,7.169C2.206,6.76,2.059,6.295,2.059,5.792V4.798   c0-1.555,1.312-2.821,2.925-2.821h27.676c-0.377,0.868-0.688,2.017-0.521,3.324c0.148,1.186,0.656,2.293,1.51,3.312H4.983z"/><path d="M36.661,22.436c-6.207,0-11.256,5.024-11.256,11.198c0,6.175,5.049,11.198,11.256,11.198s11.258-5.023,11.258-11.198   C47.919,27.46,42.868,22.436,36.661,22.436z M40.973,34.622h-3.323v3.323c0,0.546-0.441,0.988-0.988,0.988   c-0.546,0-0.988-0.442-0.988-0.988v-3.323h-3.321c-0.546,0-0.988-0.441-0.988-0.988c0-0.546,0.442-0.988,0.988-0.988h3.321v-3.32   c0-0.547,0.442-0.989,0.988-0.989c0.547,0,0.988,0.442,0.988,0.989v3.32h3.323c0.546,0,0.988,0.442,0.988,0.988   C41.961,34.181,41.519,34.622,40.973,34.622z"/></g><text x="0" y="63" fill="#000000" font-size="5px" font-weight="bold" font-family="'Helvetica Neue', Helvetica, Arial-Unicode, Arial, Sans-serif"></text><text x="0" y="68" fill="#D9D9D9" font-size="5px" font-weight="bold" font-family="'Helvetica Neue', Helvetica, Arial-Unicode, Arial, Sans-serif"></text></svg>