<svg className="crate_drop" version="1.1" id="Layer_1" xmlns="http://www.w3.org/2000/svg" xmlns:xlink="http://www.w3.org/1999/xlink" x="0px" y="0px"
	 width="100%" viewBox="0 0 512 512" enable-background="new 0 0 512 512" xml:space="preserve">

<path fill="#464B54" opacity="1.000000" stroke="none" 
	d="
M280.531342,1.000001 
	C281.744720,1.653784 282.431824,2.795503 283.242432,2.891225 
	C320.078644,7.241057 352.806000,21.675507 381.639130,44.509285 
	C402.867096,61.320358 420.123962,81.835548 433.010651,105.886757 
	C442.706543,123.982765 449.998077,142.966751 453.371857,163.166321 
	C455.489563,175.845505 456.044312,188.806107 456.880554,201.667740 
	C457.166748,206.069489 454.591278,209.367874 451.253113,212.616516 
	C440.895325,222.696548 431.101532,233.355911 421.081696,243.783539 
	C416.132050,248.934647 411.473877,254.420288 406.125763,259.119446 
	C400.274200,264.260895 390.852753,262.954987 385.482910,256.977081 
	C380.743591,251.701096 381.228546,242.438614 386.866425,236.690323 
	C396.783234,226.579285 406.834320,216.598724 416.929779,206.665771 
	C418.210815,205.405396 420.096558,204.759659 422.208801,203.535568 
	C400.805389,191.258606 378.767822,195.373795 362.986237,208.620285 
	C361.657410,209.735641 360.780914,211.510315 359.986206,213.122574 
	C353.458282,226.365570 347.057037,239.671158 340.498993,252.899094 
	C336.327393,261.313446 329.181152,264.168945 320.733856,261.042450 
	C314.745300,258.825958 310.386749,250.744324 312.743652,244.809036 
	C315.551208,237.738953 319.187042,230.998825 322.437805,224.103394 
	C324.894196,218.892853 327.309479,213.662888 329.928375,208.043900 
	C281.239899,188.278595 233.009216,188.394592 183.942169,207.531509 
	C184.819626,209.769470 185.486969,211.906433 186.464722,213.890427 
	C190.794373,222.676010 195.049881,231.504318 199.639771,240.153961 
	C205.833252,251.825607 197.378174,264.039825 184.908401,261.805481 
	C181.682297,261.227417 178.144775,259.008087 176.021133,256.476593 
	C173.095032,252.988541 171.222717,248.563400 169.171692,244.405182 
	C164.697937,235.335281 160.255569,226.244690 156.056732,217.045563 
	C149.349258,202.350327 136.441513,197.733521 121.924751,196.098083 
	C114.322037,195.241592 106.662743,195.894241 99.462135,199.019791 
	C97.378654,199.924164 95.348061,200.950348 92.275787,203.622559 
	C93.855782,204.588120 95.713165,205.281113 96.972046,206.562210 
	C107.344521,217.117813 117.639732,227.750122 127.886475,238.428177 
	C132.820465,243.569855 132.183640,253.331726 126.714325,258.715332 
	C121.840378,263.512878 111.594414,263.153687 106.705910,258.143829 
	C91.838951,242.907867 76.965187,227.677933 61.988953,212.549728 
	C58.612652,209.139175 56.979584,205.255356 56.998951,200.537766 
	C57.184784,155.256195 71.178375,114.653610 98.741600,78.822731 
	C119.358078,52.022293 145.241257,31.674992 176.187378,18.006205 
	C193.655502,10.290603 211.835968,4.843989 230.947495,2.914252 
	C231.655640,2.842750 232.305481,2.194095 232.991241,1.407202 
	C248.687561,1.000000 264.375122,1.000000 280.531342,1.000001 
M188.081177,43.897232 
	C129.166748,69.098572 93.358940,126.514954 88.386101,173.067032 
	C109.363152,165.275879 130.101334,166.078369 150.960037,174.753662 
	C154.764664,128.243713 164.523285,84.071968 189.780273,44.090710 
	C189.455002,43.991123 189.129715,43.891533 188.081177,43.897232 
M324.905762,43.436165 
	C324.742798,43.786629 324.579865,44.137096 324.702698,45.118954 
	C349.725739,84.534996 359.178680,128.623978 363.076416,174.816803 
	C383.972992,165.945709 404.709259,165.377655 426.030914,173.177689 
	C425.801727,171.136337 425.749146,169.828522 425.498810,168.559708 
	C418.279724,131.971313 401.066254,100.869011 373.856415,75.410217 
	C359.541107,62.016098 343.566956,51.012474 324.905762,43.436165 
M273.947449,165.517426 
	C294.780731,167.075256 314.973969,171.620758 335.062347,179.036774 
	C331.787445,136.967056 324.394073,96.620827 301.351013,60.858112 
	C296.718536,53.668503 290.862946,46.980957 284.504730,41.243973 
	C266.850189,25.314396 247.268127,25.574461 229.293060,41.203205 
	C217.774902,51.217896 209.690628,63.770847 203.055847,77.319679 
	C191.078827,101.777901 184.595078,127.836159 181.022278,154.689224 
	C179.962463,162.654831 179.351151,170.680130 178.600891,178.026199 
	C194.559921,174.302856 209.712906,169.543701 225.224091,167.490311 
	C240.973145,165.405411 257.075623,165.990402 273.947449,165.517426 
z"/>
<path fill="#464C54" opacity="1.000000" stroke="none" 
	d="
M154.468658,513.000000 
	C153.787735,512.424622 153.740295,511.525360 153.339142,511.321259 
	C143.362152,506.245209 140.827637,497.352997 141.033615,487.170135 
	C141.201233,478.883362 141.116989,470.537598 142.114410,462.335968 
	C143.202682,453.387451 148.918091,447.962341 157.741425,445.897339 
	C160.257721,445.308411 162.108871,444.527100 162.090363,441.071167 
	C161.931442,411.416626 161.994934,381.760834 161.975220,352.105438 
	C161.974686,351.299133 161.785370,350.492950 161.694183,349.767029 
	C149.656967,347.122864 140.867493,341.672241 141.043762,323.180664 
	C141.124313,314.729279 141.151840,306.224670 142.111206,297.848175 
	C143.237854,288.011505 151.904495,281.015656 161.815475,281.012939 
	C224.958252,280.995636 288.101044,280.989624 351.243805,281.018005 
	C362.772186,281.023193 371.941406,290.362122 371.989624,302.001648 
	C372.023438,310.165070 371.535431,318.361176 372.106018,326.484680 
	C372.937958,338.328857 365.045227,347.864532 352.268860,349.469238 
	C352.181274,351.123108 352.007751,352.884491 352.006683,354.645996 
	C351.989746,382.968628 352.060638,411.291565 351.919556,439.613495 
	C351.899750,443.589508 352.879333,445.380219 357.106445,446.310120 
	C365.908844,448.246613 371.943451,456.588470 371.987183,465.694702 
	C372.028778,474.357910 371.879578,483.023468 372.029755,491.684265 
	C372.178558,500.266937 368.856567,506.755249 361.277588,510.966125 
	C360.738678,511.265533 360.354431,511.843231 359.949158,512.645752 
	C291.645782,513.000000 223.291550,513.000000 154.468658,513.000000 
M190.797195,367.918427 
	C190.797195,383.166992 190.797195,398.415527 190.797195,412.076904 
	C206.051071,397.590210 221.568985,382.852722 237.683701,367.813446 
	C243.743362,361.999725 249.803024,356.185974 255.964371,350.274719 
	C254.746353,349.294769 254.509995,348.937988 254.272552,348.937256 
	C234.185089,348.877014 214.097473,348.867157 194.010132,348.783234 
	C191.246216,348.771667 190.684616,350.254425 190.740768,352.564240 
	C190.857635,357.373199 190.900360,362.183990 190.797195,367.918427 
M323.222443,430.090820 
	C323.222443,413.890350 323.222443,397.689880 323.222443,383.398254 
	C307.220551,398.540527 290.604401,414.264038 273.392151,430.283203 
	C268.676453,435.071259 263.960724,439.859283 259.245026,444.647308 
	C259.432587,445.031219 259.620148,445.415131 259.807739,445.799042 
	C261.565125,445.799042 263.322510,445.799072 265.079895,445.799072 
	C279.893066,445.799072 294.706238,445.799072 309.519409,445.799072 
	C324.035187,445.799072 324.035187,445.799072 323.222443,430.090820 
M277.189117,367.191772 
	C256.479553,388.157074 235.770020,409.122406 214.477966,430.399963 
	C209.773758,435.163147 205.069550,439.926361 199.337509,445.730255 
	C206.636444,445.730255 212.362350,445.806213 218.082520,445.659607 
	C219.100479,445.633484 220.303879,444.891205 221.065170,444.125336 
	C225.264160,439.900879 229.352600,435.566620 234.025696,430.929230 
	C254.674591,409.938904 275.323486,388.948578 296.566162,367.662445 
	C302.360199,361.733185 308.154236,355.803925 313.948273,349.874664 
	C307.991821,348.801117 302.848602,348.655823 297.723022,348.892334 
	C296.244232,348.960571 294.488708,349.794342 293.420013,350.846130 
	C288.098267,356.083740 282.963318,361.511139 277.189117,367.191772 
M308.500000,485.075195 
	C320.256531,485.075195 332.013062,485.075195 343.848358,485.075195 
	C343.848358,480.729523 343.848358,477.149933 343.848358,473.327393 
	C285.823578,473.327393 228.125351,473.327393 170.244064,473.327393 
	C170.244064,477.318512 170.244064,481.009308 170.244064,485.075256 
	C216.274567,485.075256 261.887299,485.075256 308.500000,485.075195 
M344.181030,313.538788 
	C344.055237,312.105316 343.929443,310.671844 343.798920,309.184204 
	C285.702148,309.184204 228.015121,309.184204 170.131714,309.184204 
	C170.131714,313.124847 170.131714,316.696838 170.131714,320.576782 
	C228.132492,320.576782 285.819946,320.576782 344.182007,320.576782 
	C344.182007,318.371765 344.182007,316.431305 344.181030,313.538788 
z"/>
<path fill="#FEFEFE" opacity="1.000000" stroke="none" 
	d="
M273.485413,165.461777 
	C257.075623,165.990402 240.973145,165.405411 225.224091,167.490311 
	C209.712906,169.543701 194.559921,174.302856 178.600891,178.026199 
	C179.351151,170.680130 179.962463,162.654831 181.022278,154.689224 
	C184.595078,127.836159 191.078827,101.777901 203.055847,77.319679 
	C209.690628,63.770847 217.774902,51.217896 229.293060,41.203205 
	C247.268127,25.574461 266.850189,25.314396 284.504730,41.243973 
	C290.862946,46.980957 296.718536,53.668503 301.351013,60.858112 
	C324.394073,96.620827 331.787445,136.967056 335.062347,179.036774 
	C314.973969,171.620758 294.780731,167.075256 273.485413,165.461777 
z"/>
<path fill="#F38784" opacity="1.000000" stroke="none" 
	d="
M325.185272,43.798584 
	C343.566956,51.012474 359.541107,62.016098 373.856415,75.410217 
	C401.066254,100.869011 418.279724,131.971313 425.498810,168.559708 
	C425.749146,169.828522 425.801727,171.136337 426.030914,173.177689 
	C404.709259,165.377655 383.972992,165.945709 363.076416,174.816803 
	C359.178680,128.623978 349.725739,84.534996 324.756683,44.636349 
	C324.935516,44.035358 325.060394,43.916973 325.185272,43.798584 
z"/>
<path fill="#F38784" opacity="1.000000" stroke="none" 
	d="
M189.533295,44.472435 
	C164.523285,84.071968 154.764664,128.243713 150.960037,174.753662 
	C130.101334,166.078369 109.363152,165.275879 88.386101,173.067032 
	C93.358940,126.514954 129.166748,69.098572 188.621552,44.018425 
	C189.161926,44.139618 189.533295,44.472435 189.533295,44.472435 
z"/>
<path fill="#F38784" opacity="1.000000" stroke="none" 
	d="
M324.613770,44.320656 
	C324.579865,44.137096 324.742798,43.786629 325.045532,43.617374 
	C325.060394,43.916973 324.935516,44.035358 324.613770,44.320656 
z"/>
<path fill="#F38784" opacity="1.000000" stroke="none" 
	d="
M188.983185,43.965782 
	C189.129715,43.891533 189.455002,43.991123 189.656784,44.281570 
	C189.533295,44.472435 189.161926,44.139618 188.983185,43.965782 
z"/>
<path fill="#E1AF9A" opacity="1.000000" stroke="none" 
	d="
M308.000000,485.075226 
	C261.887299,485.075256 216.274567,485.075256 170.244064,485.075256 
	C170.244064,481.009308 170.244064,477.318512 170.244064,473.327393 
	C228.125351,473.327393 285.823578,473.327393 343.848358,473.327393 
	C343.848358,477.149933 343.848358,480.729523 343.848358,485.075195 
	C332.013062,485.075195 320.256531,485.075195 308.000000,485.075226 
z"/>
<path fill="#DFAE99" opacity="1.000000" stroke="none" 
	d="
M344.181519,314.014832 
	C344.182007,316.431305 344.182007,318.371765 344.182007,320.576782 
	C285.819946,320.576782 228.132492,320.576782 170.131714,320.576782 
	C170.131714,316.696838 170.131714,313.124847 170.131714,309.184204 
	C228.015121,309.184204 285.702148,309.184204 343.798920,309.184204 
	C343.929443,310.671844 344.055237,312.105316 344.181519,314.014832 
z"/>
<path fill="#DFAE99" opacity="1.000000" stroke="none" 
	d="
M295.972382,367.958221 
	C275.323486,388.948578 254.674591,409.938904 233.250885,431.048096 
	C226.670883,430.807220 220.865692,430.447479 215.060486,430.087738 
	C235.770020,409.122406 256.479553,388.157074 277.959595,367.061920 
	C284.477478,367.274109 290.224945,367.616150 295.972382,367.958221 
z"/>
<path fill="#E1B09A" opacity="1.000000" stroke="none" 
	d="
M273.988281,429.987549 
	C290.604401,414.264038 307.220551,398.540527 323.222443,383.398254 
	C323.222443,397.689880 323.222443,413.890350 322.671021,430.558136 
	C307.992554,431.025146 293.865265,431.063934 279.738708,430.978455 
	C277.819977,430.966858 275.904968,430.333191 273.988281,429.987549 
z"/>
<path fill="#E2B09A" opacity="1.000000" stroke="none" 
	d="
M237.086929,368.115234 
	C221.568985,382.852722 206.051071,397.590210 190.797195,412.076904 
	C190.797195,398.415527 190.797195,383.166992 191.355957,367.459076 
	C205.060242,367.001495 218.206070,366.958588 231.350906,367.054474 
	C233.265411,367.068420 235.175049,367.745209 237.086929,368.115234 
z"/>
<path fill="#CC9F8B" opacity="1.000000" stroke="none" 
	d="
M237.385315,367.964355 
	C235.175049,367.745209 233.265411,367.068420 231.350906,367.054474 
	C218.206070,366.958588 205.060242,367.001495 191.444122,366.996887 
	C190.900360,362.183990 190.857635,357.373199 190.740768,352.564240 
	C190.684616,350.254425 191.246216,348.771667 194.010132,348.783234 
	C214.097473,348.867157 234.185089,348.877014 254.272552,348.937256 
	C254.509995,348.937988 254.746353,349.294769 255.964371,350.274719 
	C249.803024,356.185974 243.743362,361.999725 237.385315,367.964355 
z"/>
<path fill="#C89D8A" opacity="1.000000" stroke="none" 
	d="
M273.690186,430.135376 
	C275.904968,430.333191 277.819977,430.966858 279.738708,430.978455 
	C293.865265,431.063934 307.992554,431.025146 322.593140,431.022766 
	C324.035187,445.799072 324.035187,445.799072 309.519409,445.799072 
	C294.706238,445.799072 279.893066,445.799072 265.079895,445.799072 
	C263.322510,445.799072 261.565125,445.799042 259.807739,445.799042 
	C259.620148,445.415131 259.432587,445.031219 259.245026,444.647308 
	C263.960724,439.859283 268.676453,435.071259 273.690186,430.135376 
z"/>
<path fill="#CA9E8A" opacity="1.000000" stroke="none" 
	d="
M296.269287,367.810333 
	C290.224945,367.616150 284.477478,367.274109 278.246338,366.901917 
	C282.963318,361.511139 288.098267,356.083740 293.420013,350.846130 
	C294.488708,349.794342 296.244232,348.960571 297.723022,348.892334 
	C302.848602,348.655823 307.991821,348.801117 313.948273,349.874664 
	C308.154236,355.803925 302.360199,361.733185 296.269287,367.810333 
z"/>
<path fill="#C69B89" opacity="1.000000" stroke="none" 
	d="
M214.769226,430.243835 
	C220.865692,430.447479 226.670883,430.807220 232.977509,431.218475 
	C229.352600,435.566620 225.264160,439.900879 221.065170,444.125336 
	C220.303879,444.891205 219.100479,445.633484 218.082520,445.659607 
	C212.362350,445.806213 206.636444,445.730255 199.337509,445.730255 
	C205.069550,439.926361 209.773758,435.163147 214.769226,430.243835 
z"/>
</svg>