<svg className="crate_truck" version="1.1" id="Layer_1" xmlns="http://www.w3.org/2000/svg" xmlns:xlink="http://www.w3.org/1999/xlink" x="0px" y="0px"
	 width="100%" viewBox="0 0 512 512" enable-background="new 0 0 512 512" xml:space="preserve">
<path fill="#454B54" opacity="1.000000" stroke="none" 
	d="
M1.000000,377.000000 
	C1.000000,342.645782 1.000000,308.291534 1.355289,273.527832 
	C4.653662,269.658661 6.961019,265.040527 10.682089,262.998505 
	C16.977045,259.543976 24.165821,257.718140 31.818407,254.898193 
	C31.765409,255.350006 31.976173,254.388687 31.976757,253.427231 
	C31.996038,221.667068 31.955278,189.906769 32.055992,158.146896 
	C32.066647,154.787170 30.811142,153.885330 27.663485,153.952454 
	C16.814085,154.183838 8.422931,150.001312 3.401898,139.965302 
	C2.979476,139.120972 1.818080,138.646378 1.000000,138.000000 
	C1.000000,120.312439 1.000000,102.624878 1.356197,84.515999 
	C2.242898,83.493271 2.929805,82.971046 3.280399,82.278549 
	C8.384390,72.197182 16.549170,67.910446 27.836506,67.926826 
	C120.810364,68.061729 213.784500,68.001053 306.758545,68.005157 
	C320.990509,68.005783 331.663727,78.236328 331.941681,92.543304 
	C332.181091,104.868523 332.150879,117.204788 331.943085,129.531158 
	C331.756500,140.598328 324.495178,150.091339 314.274719,152.703781 
	C310.167053,153.753738 305.856934,154.011475 301.324036,154.675934 
	C301.324036,188.568985 301.324036,222.455017 301.324036,256.409912 
	C304.363708,256.959412 307.088043,257.774292 309.842834,257.895111 
	C323.007812,258.472351 332.224640,271.341949 332.034302,283.344421 
	C331.857330,294.505157 332.026245,305.671021 331.989075,316.834442 
	C331.937164,332.425232 321.288177,342.993713 305.653870,342.995667 
	C254.668106,343.002045 203.682343,342.998047 152.696579,342.998016 
	C150.790955,342.998016 148.885330,342.998016 146.480759,342.998016 
	C148.835342,345.738342 150.929672,347.613861 152.320419,349.914673 
	C154.982773,354.319244 158.659409,355.130554 163.575089,355.115601 
	C221.724976,354.938934 279.875610,355.002594 338.026031,355.001007 
	C344.995575,355.000793 345.001007,354.995117 345.001099,347.972809 
	C345.002380,260.830475 345.001831,173.688126 345.002869,86.545784 
	C345.002869,84.879654 344.914551,83.205696 345.041534,81.548752 
	C345.572998,74.616234 351.166626,68.083420 357.466309,68.110184 
	C377.915710,68.197083 398.500793,67.300034 418.778137,69.331749 
	C445.859131,72.045166 466.684753,87.030258 478.593140,111.089569 
	C490.597229,135.342224 499.574310,161.091431 509.966522,186.148056 
	C510.569275,187.601425 511.970398,188.723679 513.000000,190.000000 
	C513.000000,251.687561 513.000000,313.375122 512.648926,375.478607 
	C508.899719,379.874176 505.301117,383.394653 499.431091,383.031311 
	C496.277252,382.836060 493.101379,382.996918 489.935455,382.996918 
	C481.491791,382.996979 473.048126,382.996918 464.486633,382.996918 
	C463.900177,388.754822 463.850342,393.931427 462.790558,398.892242 
	C455.680298,432.175415 424.607147,452.115234 391.616669,444.552307 
	C364.746246,438.392456 346.729919,415.470703 347.102173,388.439636 
	C347.164337,383.924530 345.737518,382.899414 341.437012,382.909546 
	C284.783966,383.043121 228.130371,383.048981 171.477417,382.901123 
	C167.033310,382.889526 165.732849,384.142639 165.917130,388.527649 
	C166.566025,403.968719 160.690689,417.235840 150.225616,428.057465 
	C136.064713,442.700928 118.503059,448.570007 98.188087,445.039337 
	C75.853279,441.157654 60.566845,428.389099 52.848927,407.261993 
	C50.123558,399.801514 49.529015,391.562622 47.826199,382.998016 
	C39.839844,382.998016 31.384762,382.952789 22.930399,383.011444 
	C15.322583,383.064209 7.457522,384.132782 1.937173,376.953247 
	C1.828643,376.812103 1.321282,376.977570 1.000000,377.000000 
M477.412537,354.999115 
	C479.830231,354.999115 482.247925,354.999115 484.704163,354.999115 
	C484.875244,353.163940 485.046570,352.182159 485.046875,351.200317 
	C485.061005,305.222992 485.007355,259.245483 485.154846,213.268661 
	C485.167572,209.307938 483.084686,208.704224 480.152222,207.977478 
	C455.268921,201.810623 430.400726,195.582306 405.538757,189.329590 
	C395.424225,186.785812 392.124786,182.475861 392.117218,171.933411 
	C392.100677,148.778183 392.119080,125.622910 392.097382,102.467690 
	C392.095581,100.538834 391.898438,98.610153 391.763214,96.158958 
	C387.482178,96.158958 383.658508,96.442986 379.895325,96.087189 
	C375.172302,95.640640 373.639008,97.176323 373.648712,102.114494 
	C373.799683,178.909653 373.752075,255.705185 373.768738,332.500641 
	C373.769135,334.220093 373.984344,335.939514 374.131073,338.132935 
	C375.558044,337.541901 376.314392,337.278717 377.026703,336.926483 
	C404.724701,323.230896 431.168976,328.835052 451.459900,352.545898 
	C452.565857,353.838287 454.734161,354.816620 456.450684,354.886169 
	C463.103210,355.155609 469.773010,354.997833 477.412537,354.999115 
M83.499908,125.627586 
	C156.566010,125.627586 229.632111,125.627586 302.575348,125.627586 
	C302.575348,115.302223 302.575348,105.907959 302.575348,96.521210 
	C211.229523,96.521210 120.318237,96.521210 29.266464,96.521210 
	C29.266464,106.280540 29.266464,115.676498 29.266464,125.627090 
	C47.238266,125.627090 64.869080,125.627090 83.499908,125.627586 
M209.500031,285.219269 
	C149.448273,285.219269 89.396530,285.219269 29.283333,285.219269 
	C29.283333,295.388153 29.283333,304.783478 29.283333,314.330841 
	C120.637840,314.330841 211.628677,314.330841 302.658478,314.330841 
	C302.658478,304.542236 302.658478,295.140808 302.658478,285.219421 
	C271.707123,285.219421 241.103577,285.219421 209.500031,285.219269 
M100.499969,257.971893 
	C106.832817,257.971771 113.177429,258.194244 119.492622,257.860321 
	C121.965660,257.729553 124.778458,256.904358 126.750221,255.459106 
	C171.229294,222.857422 215.613113,190.125809 260.012848,157.415924 
	C261.398163,156.395325 262.761993,155.345596 265.111420,153.573639 
	C262.971130,153.414017 262.197388,153.306381 261.423584,153.305939 
	C244.758118,153.296326 228.090790,153.175262 211.429169,153.428040 
	C208.845261,153.467239 205.904190,154.705383 203.774078,156.268921 
	C159.451340,188.802032 115.220818,221.460785 70.979446,254.104706 
	C69.625816,255.103485 68.351173,256.209320 66.162056,257.971863 
	C78.180504,257.971863 88.840240,257.971863 100.499969,257.971893 
M227.472855,215.980743 
	C208.923553,229.654755 190.374237,243.328766 171.017944,257.597656 
	C205.413620,257.597656 238.601379,257.597656 271.752014,257.597656 
	C271.752014,232.911346 271.752014,208.599228 271.752014,183.425201 
	C256.698273,194.490631 242.371826,205.021469 227.472855,215.980743 
M157.758240,155.520126 
	C158.190750,154.964752 158.623260,154.409393 159.254639,153.598663 
	C158.215805,153.440292 157.738083,153.303879 157.260300,153.303696 
	C126.459641,153.291412 95.658630,153.359299 64.858727,153.205261 
	C60.755096,153.184738 60.315632,155.012131 60.330791,158.347275 
	C60.427658,179.657562 60.375401,200.968521 60.391819,222.279236 
	C60.392799,223.551178 60.563156,224.822968 60.722446,227.036148 
	C93.314293,203.018204 125.267433,179.470947 157.758240,155.520126 
M84.493126,367.028137 
	C75.119438,378.828278 74.194939,393.222321 82.059402,404.919952 
	C89.635208,416.188232 103.675949,421.227142 116.661011,417.337738 
	C129.227173,413.573792 138.146515,402.468353 138.932007,389.608124 
	C139.723633,376.647400 132.647064,364.608398 121.107018,359.283447 
	C108.928581,353.663940 95.170746,356.415405 84.493126,367.028137 
M374.232849,383.975861 
	C374.175140,385.139893 374.065369,386.303986 374.067657,387.467896 
	C374.092926,400.212402 381.720825,411.535370 393.500580,416.344238 
	C405.455261,421.224487 418.956696,418.268677 427.879486,408.817810 
	C436.488739,399.699036 438.724152,385.976318 433.477631,374.452332 
	C427.978577,362.373657 415.455322,355.240906 402.222015,356.650482 
	C387.666656,358.200897 377.638397,367.736267 374.232849,383.975861 
M439.221588,169.210571 
	C451.170135,172.200638 463.118683,175.190704 476.184570,178.460388 
	C468.528717,159.913467 461.632721,142.479034 454.121002,125.314049 
	C450.313171,116.612846 443.706940,109.855873 435.534302,104.983101 
	C430.832458,102.179741 425.685913,100.122253 420.317139,97.524635 
	C420.317139,120.678772 420.317139,142.589828 420.317139,164.341904 
	C420.737122,164.576675 420.868744,164.691071 421.019562,164.728668 
	C426.815857,166.173798 432.613831,167.611923 439.221588,169.210571 
M48.450119,355.001984 
	C59.191730,355.001923 64.116959,352.006287 67.864784,343.012939 
	C55.984764,343.012939 44.203606,343.058136 32.423290,342.978149 
	C29.792662,342.960297 28.838528,344.068481 28.991495,346.557922 
	C29.082977,348.046783 29.120171,349.556946 28.979294,351.038269 
	C28.688318,354.097870 30.025774,355.147217 33.018337,355.042206 
	C37.828205,354.873474 42.648434,355.000122 48.450119,355.001984 
z"/>
<path fill="#7CA5C6" opacity="1.000000" stroke="none" 
	d="
M476.924469,354.999146 
	C469.773010,354.997833 463.103210,355.155609 456.450684,354.886169 
	C454.734161,354.816620 452.565857,353.838287 451.459900,352.545898 
	C431.168976,328.835052 404.724701,323.230896 377.026703,336.926483 
	C376.314392,337.278717 375.558044,337.541901 374.131073,338.132935 
	C373.984344,335.939514 373.769135,334.220093 373.768738,332.500641 
	C373.752075,255.705185 373.799683,178.909653 373.648712,102.114494 
	C373.639008,97.176323 375.172302,95.640640 379.895325,96.087189 
	C383.658508,96.442986 387.482178,96.158958 391.763214,96.158958 
	C391.898438,98.610153 392.095581,100.538834 392.097382,102.467690 
	C392.119080,125.622910 392.100677,148.778183 392.117218,171.933411 
	C392.124786,182.475861 395.424225,186.785812 405.538757,189.329590 
	C430.400726,195.582306 455.268921,201.810623 480.152222,207.977478 
	C483.084686,208.704224 485.167572,209.307938 485.154846,213.268661 
	C485.007355,259.245483 485.061005,305.222992 485.046875,351.200317 
	C485.046570,352.182159 484.875244,353.163940 484.704163,354.999115 
	C482.247925,354.999115 479.830231,354.999115 476.924469,354.999146 
z"/>
<path fill="#DEAE98" opacity="1.000000" stroke="none" 
	d="
M82.999901,125.627335 
	C64.869080,125.627090 47.238266,125.627090 29.266464,125.627090 
	C29.266464,115.676498 29.266464,106.280540 29.266464,96.521210 
	C120.318237,96.521210 211.229523,96.521210 302.575348,96.521210 
	C302.575348,105.907959 302.575348,115.302223 302.575348,125.627586 
	C229.632111,125.627586 156.566010,125.627586 82.999901,125.627335 
z"/>
<path fill="#DEAE98" opacity="1.000000" stroke="none" 
	d="
M210.000031,285.219360 
	C241.103577,285.219421 271.707123,285.219421 302.658478,285.219421 
	C302.658478,295.140808 302.658478,304.542236 302.658478,314.330841 
	C211.628677,314.330841 120.637840,314.330841 29.283333,314.330841 
	C29.283333,304.783478 29.283333,295.388153 29.283333,285.219269 
	C89.396530,285.219269 149.448273,285.219269 210.000031,285.219360 
z"/>
<path fill="#E0AF99" opacity="1.000000" stroke="none" 
	d="
M99.999977,257.971863 
	C88.840240,257.971863 78.180504,257.971863 66.162056,257.971863 
	C68.351173,256.209320 69.625816,255.103485 70.979446,254.104706 
	C115.220818,221.460785 159.451340,188.802032 203.774078,156.268921 
	C205.904190,154.705383 208.845261,153.467239 211.429169,153.428040 
	C228.090790,153.175262 244.758118,153.296326 261.423584,153.305939 
	C262.197388,153.306381 262.971130,153.414017 265.111420,153.573639 
	C262.761993,155.345596 261.398163,156.395325 260.012848,157.415924 
	C215.613113,190.125809 171.229294,222.857422 126.750221,255.459106 
	C124.778458,256.904358 121.965660,257.729553 119.492622,257.860321 
	C113.177429,258.194244 106.832817,257.971771 99.999977,257.971863 
z"/>
<path fill="#E1AF9A" opacity="1.000000" stroke="none" 
	d="
M227.759125,215.766525 
	C242.371826,205.021469 256.698273,194.490631 271.752014,183.425201 
	C271.752014,208.599228 271.752014,232.911346 271.752014,257.597656 
	C238.601379,257.597656 205.413620,257.597656 171.017944,257.597656 
	C190.374237,243.328766 208.923553,229.654755 227.759125,215.766525 
z"/>
<path fill="#DEAE98" opacity="1.000000" stroke="none" 
	d="
M157.489410,155.721909 
	C125.267433,179.470947 93.314293,203.018204 60.722446,227.036148 
	C60.563156,224.822968 60.392799,223.551178 60.391819,222.279236 
	C60.375401,200.968521 60.427658,179.657562 60.330791,158.347275 
	C60.315632,155.012131 60.755096,153.184738 64.858727,153.205261 
	C95.658630,153.359299 126.459641,153.291412 157.260300,153.303696 
	C157.738083,153.303879 158.215805,153.440292 159.254639,153.598663 
	C158.623260,154.409393 158.190750,154.964752 157.489410,155.721909 
z"/>
<path fill="#FEFEFE" opacity="1.000000" stroke="none" 
	d="
M84.740189,366.767609 
	C95.170746,356.415405 108.928581,353.663940 121.107018,359.283447 
	C132.647064,364.608398 139.723633,376.647400 138.932007,389.608124 
	C138.146515,402.468353 129.227173,413.573792 116.661011,417.337738 
	C103.675949,421.227142 89.635208,416.188232 82.059402,404.919952 
	C74.194939,393.222321 75.119438,378.828278 84.740189,366.767609 
z"/>
<path fill="#FEFEFE" opacity="1.000000" stroke="none" 
	d="
M374.308502,383.548004 
	C377.638397,367.736267 387.666656,358.200897 402.222015,356.650482 
	C415.455322,355.240906 427.978577,362.373657 433.477631,374.452332 
	C438.724152,385.976318 436.488739,399.699036 427.879486,408.817810 
	C418.956696,418.268677 405.455261,421.224487 393.500580,416.344238 
	C381.720825,411.535370 374.092926,400.212402 374.067657,387.467896 
	C374.065369,386.303986 374.175140,385.139893 374.308502,383.548004 
z"/>
<path fill="#FDFDFD" opacity="1.000000" stroke="none" 
	d="
M438.816589,169.130768 
	C432.613831,167.611923 426.815857,166.173798 421.019562,164.728668 
	C420.868744,164.691071 420.737122,164.576675 420.317139,164.341904 
	C420.317139,142.589828 420.317139,120.678772 420.317139,97.524635 
	C425.685913,100.122253 430.832458,102.179741 435.534302,104.983101 
	C443.706940,109.855873 450.313171,116.612846 454.121002,125.314049 
	C461.632721,142.479034 468.528717,159.913467 476.184570,178.460388 
	C463.118683,175.190704 451.170135,172.200638 438.816589,169.130768 
z"/>
</svg>