<svg className="package" version="1.1" id="Layer_1" xmlns="http://www.w3.org/2000/svg" xmlns:xlink="http://www.w3.org/1999/xlink" x="0px" y="0px"
	 width="100%" viewBox="0 0 512 512" enable-background="new 0 0 512 512" xml:space="preserve">
<path fill="#464C54" opacity="1.000000" stroke="none" 
	d="
M1.000000,390.000000 
	C1.000000,301.979095 1.000000,213.958206 1.354225,125.333771 
	C4.467000,113.433716 10.901974,104.929840 21.569336,100.239616 
	C35.041325,94.316261 48.755966,88.947159 62.325932,83.243797 
	C90.523544,71.392532 118.718552,59.534470 146.870636,47.575619 
	C178.898315,33.970432 210.860901,20.212017 242.890213,6.610688 
	C251.159119,3.099276 259.760101,2.483075 268.223419,5.726974 
	C279.241821,9.950203 290.140900,14.493125 301.023499,19.060177 
	C316.546082,25.574467 331.984192,32.289902 347.500854,38.818447 
	C362.860382,45.280872 378.280975,51.597969 393.659424,58.015663 
	C409.040588,64.434494 424.401123,70.902863 439.773712,77.342316 
	C455.443237,83.906136 471.127045,90.436089 486.783691,97.030487 
	C494.776581,100.396996 502.759338,103.928925 507.323242,111.917992 
	C509.523438,115.769402 511.126526,119.961929 513.000000,124.000000 
	C513.000000,212.020889 513.000000,300.041779 512.645752,388.666199 
	C509.683197,399.948273 503.484589,407.744232 493.398346,412.175354 
	C479.918518,418.097504 466.359589,423.840210 452.819427,429.624298 
	C423.210236,442.272583 393.609436,454.940674 363.971588,467.521515 
	C333.441284,480.481171 302.874146,493.354156 272.316315,506.248993 
	C263.355530,510.030304 254.340179,511.502808 244.935089,507.513153 
	C224.687134,498.924042 204.374985,490.486053 184.074997,482.020050 
	C167.955109,475.297302 151.802856,468.652161 135.685822,461.922668 
	C118.965515,454.941254 102.270248,447.899872 85.564156,440.884399 
	C67.369438,433.243835 49.154053,425.651978 30.990057,417.939056 
	C23.207264,414.634308 14.811763,412.000702 9.538942,404.865417 
	C6.165221,400.300018 3.811176,394.981110 1.000000,390.000000 
M266.860199,218.961670 
	C267.961670,224.960800 269.991547,230.954910 270.023956,236.959824 
	C270.442566,314.451447 270.576752,391.944611 270.781860,469.437408 
	C270.787384,471.522614 270.782562,473.607819 270.782562,476.471100 
	C273.355347,475.466095 275.034241,474.857239 276.676514,474.161926 
	C343.371368,445.925842 410.037354,417.621155 476.800018,389.546356 
	C482.573822,387.118378 484.859467,383.913483 484.845642,377.599762 
	C484.676208,300.273041 484.737305,222.945816 484.723999,145.618713 
	C484.723724,143.885452 484.552002,142.152206 484.429688,139.840897 
	C481.903320,140.901077 480.078796,141.642334 478.273560,142.427917 
	C447.587433,155.781281 416.905487,169.144318 386.218384,182.495453 
	C376.157959,186.872498 370.750885,185.514969 363.975220,176.175476 
	C361.561920,167.359146 364.214813,161.654510 372.506104,158.052444 
	C394.175171,148.638550 415.861115,139.263443 437.534485,129.859406 
	C446.006561,126.183395 454.463013,122.471436 463.924347,118.340157 
	C461.274200,117.197227 459.639679,116.476006 457.992676,115.784454 
	C432.987854,105.285133 407.940308,94.885712 383.014618,84.201813 
	C378.704437,82.354332 375.168213,82.272392 370.802979,84.145081 
	C314.688751,108.218132 258.490387,132.095001 202.317307,156.030930 
	C192.151001,160.362869 182.002579,164.736786 171.052521,169.431458 
	C196.322906,180.139954 220.595657,190.635864 245.053528,200.681015 
	C254.171204,204.425766 261.671936,209.660309 266.860199,218.961670 
M96.258202,415.207672 
	C144.836029,435.595306 193.413849,455.982910 242.538177,476.599915 
	C242.681274,474.302856 242.851837,472.867767 242.848419,471.433075 
	C242.661789,393.116638 242.429596,314.800262 242.335327,236.483719 
	C242.329453,231.616333 240.594818,228.873383 236.099792,226.996002 
	C208.767014,215.580353 181.517410,203.965622 154.231628,192.437225 
	C152.796387,191.830826 151.284607,191.405533 149.253540,190.704361 
	C149.253540,196.849396 149.318619,202.169983 149.221741,207.487610 
	C149.182648,209.633316 149.111343,211.870193 148.497040,213.896530 
	C146.623962,220.074997 140.775146,223.819962 134.260147,223.317078 
	C127.566460,222.800415 122.323914,218.497452 121.878586,211.788239 
	C121.250854,202.331024 121.291649,192.810699 121.492592,183.326813 
	C121.568550,179.741821 120.498398,178.081863 117.199120,176.705048 
	C89.248863,165.041214 61.381039,153.179871 33.480831,141.395874 
	C32.164497,140.839905 30.776030,140.454697 28.948271,139.827744 
	C28.948271,141.748047 28.948267,143.067642 28.948269,144.387253 
	C28.948322,223.037369 28.981062,301.687561 28.870384,380.337494 
	C28.863457,385.260681 30.716103,387.927673 35.183533,389.762238 
	C55.349220,398.043427 75.424217,406.545471 96.258202,415.207672 
M207.394165,51.887848 
	C155.320023,73.930458 103.245872,95.973076 50.407146,118.339325 
	C53.089184,119.514465 54.892181,120.327705 56.713043,121.098755 
	C80.004814,130.961639 103.378738,140.637070 126.539604,150.798187 
	C132.709198,153.504883 137.682816,153.765945 144.180099,150.957382 
	C208.030518,123.356949 272.081238,96.219856 336.070801,68.941162 
	C337.452698,68.352058 338.783661,67.643600 340.847961,66.648895 
	C313.499908,55.179043 287.147858,44.023647 260.666046,33.185207 
	C258.107330,32.137978 254.391785,32.174866 251.813049,33.207039 
	C237.139252,39.080406 222.647675,45.409039 207.394165,51.887848 
z"/>
<path fill="#FFFFFF" opacity="1.000000" stroke="none" 
	d="
M1.000000,390.468658 
	C3.811176,394.981110 6.165221,400.300018 9.538942,404.865417 
	C14.811763,412.000702 23.207264,414.634308 30.990057,417.939056 
	C49.154053,425.651978 67.369438,433.243835 85.564156,440.884399 
	C102.270248,447.899872 118.965515,454.941254 135.685822,461.922668 
	C151.802856,468.652161 167.955109,475.297302 184.074997,482.020050 
	C204.374985,490.486053 224.687134,498.924042 244.935089,507.513153 
	C254.340179,511.502808 263.355530,510.030304 272.316315,506.248993 
	C302.874146,493.354156 333.441284,480.481171 363.971588,467.521515 
	C393.609436,454.940674 423.210236,442.272583 452.819427,429.624298 
	C466.359589,423.840210 479.918518,418.097504 493.398346,412.175354 
	C503.484589,407.744232 509.683197,399.948273 512.645752,389.134827 
	C513.000000,430.309479 513.000000,471.618988 513.000000,512.964233 
	C342.455627,512.964233 171.911224,512.964233 1.000000,512.964233 
	C1.000000,472.313171 1.000000,431.625244 1.000000,390.468658 
z"/>
<path fill="#FFFFFF" opacity="1.000000" stroke="none" 
	d="
M513.000000,123.531342 
	C511.126526,119.961929 509.523438,115.769402 507.323242,111.917992 
	C502.759338,103.928925 494.776581,100.396996 486.783691,97.030487 
	C471.127045,90.436089 455.443237,83.906136 439.773712,77.342316 
	C424.401123,70.902863 409.040588,64.434494 393.659424,58.015663 
	C378.280975,51.597969 362.860382,45.280872 347.500854,38.818447 
	C331.984192,32.289902 316.546082,25.574467 301.023499,19.060177 
	C290.140900,14.493125 279.241821,9.950203 268.223419,5.726974 
	C259.760101,2.483075 251.159119,3.099276 242.890213,6.610688 
	C210.860901,20.212017 178.898315,33.970432 146.870636,47.575619 
	C118.718552,59.534470 90.523544,71.392532 62.325932,83.243797 
	C48.755966,88.947159 35.041325,94.316261 21.569336,100.239616 
	C10.901974,104.929840 4.467000,113.433716 1.354225,124.865112 
	C1.000000,83.690491 1.000000,42.380974 1.000000,1.035732 
	C171.544495,1.035732 342.088989,1.035732 513.000000,1.035732 
	C513.000000,41.686829 513.000000,82.374756 513.000000,123.531342 
z"/>
<path fill="#CFB798" opacity="1.000000" stroke="none" 
	d="
M364.067444,176.982544 
	C370.750885,185.514969 376.157959,186.872498 386.218384,182.495453 
	C416.905487,169.144318 447.587433,155.781281 478.273560,142.427917 
	C480.078796,141.642334 481.903320,140.901077 484.429688,139.840897 
	C484.552002,142.152206 484.723724,143.885452 484.723999,145.618713 
	C484.737305,222.945816 484.676208,300.273041 484.845642,377.599762 
	C484.859467,383.913483 482.573822,387.118378 476.800018,389.546356 
	C410.037354,417.621155 343.371368,445.925842 276.676514,474.161926 
	C275.034241,474.857239 273.355347,475.466095 270.782562,476.471100 
	C270.782562,473.607819 270.787384,471.522614 270.781860,469.437408 
	C270.576752,391.944611 270.442566,314.451447 270.023956,236.959824 
	C269.991547,230.954910 267.961670,224.960800 267.104645,218.413162 
	C284.437042,210.563751 301.504578,203.214584 318.619049,195.976440 
	C333.741333,189.580856 348.915955,183.309021 364.067444,176.982544 
z"/>
<path fill="#E4CAA6" opacity="1.000000" stroke="none" 
	d="
M95.895050,415.087769 
	C75.424217,406.545471 55.349220,398.043427 35.183533,389.762238 
	C30.716103,387.927673 28.863457,385.260681 28.870384,380.337494 
	C28.981062,301.687561 28.948322,223.037369 28.948269,144.387253 
	C28.948267,143.067642 28.948271,141.748047 28.948271,139.827744 
	C30.776030,140.454697 32.164497,140.839905 33.480831,141.395874 
	C61.381039,153.179871 89.248863,165.041214 117.199120,176.705048 
	C120.498398,178.081863 121.568550,179.741821 121.492592,183.326813 
	C121.291649,192.810699 121.250854,202.331024 121.878586,211.788239 
	C122.323914,218.497452 127.566460,222.800415 134.260147,223.317078 
	C140.775146,223.819962 146.623962,220.074997 148.497040,213.896530 
	C149.111343,211.870193 149.182648,209.633316 149.221741,207.487610 
	C149.318619,202.169983 149.253540,196.849396 149.253540,190.704361 
	C151.284607,191.405533 152.796387,191.830826 154.231628,192.437225 
	C181.517410,203.965622 208.767014,215.580353 236.099792,226.996002 
	C240.594818,228.873383 242.329453,231.616333 242.335327,236.483719 
	C242.429596,314.800262 242.661789,393.116638 242.848419,471.433075 
	C242.851837,472.867767 242.681274,474.302856 242.538177,476.599915 
	C193.413849,455.982910 144.836029,435.595306 95.895050,415.087769 
z"/>
<path fill="#E3C9A6" opacity="1.000000" stroke="none" 
	d="
M364.021332,176.579010 
	C348.915955,183.309021 333.741333,189.580856 318.619049,195.976440 
	C301.504578,203.214584 284.437042,210.563751 267.011993,218.047150 
	C261.671936,209.660309 254.171204,204.425766 245.053528,200.681015 
	C220.595657,190.635864 196.322906,180.139954 171.052521,169.431458 
	C182.002579,164.736786 192.151001,160.362869 202.317307,156.030930 
	C258.490387,132.095001 314.688751,108.218132 370.802979,84.145081 
	C375.168213,82.272392 378.704437,82.354332 383.014618,84.201813 
	C407.940308,94.885712 432.987854,105.285133 457.992676,115.784454 
	C459.639679,116.476006 461.274200,117.197227 463.924347,118.340157 
	C454.463013,122.471436 446.006561,126.183395 437.534485,129.859406 
	C415.861115,139.263443 394.175171,148.638550 372.506104,158.052444 
	C364.214813,161.654510 361.561920,167.359146 364.021332,176.579010 
z"/>
<path fill="#E3C9A6" opacity="1.000000" stroke="none" 
	d="
M207.744141,51.735352 
	C222.647675,45.409039 237.139252,39.080406 251.813049,33.207039 
	C254.391785,32.174866 258.107330,32.137978 260.666046,33.185207 
	C287.147858,44.023647 313.499908,55.179043 340.847961,66.648895 
	C338.783661,67.643600 337.452698,68.352058 336.070801,68.941162 
	C272.081238,96.219856 208.030518,123.356949 144.180099,150.957382 
	C137.682816,153.765945 132.709198,153.504883 126.539604,150.798187 
	C103.378738,140.637070 80.004814,130.961639 56.713043,121.098755 
	C54.892181,120.327705 53.089184,119.514465 50.407146,118.339325 
	C103.245872,95.973076 155.320023,73.930458 207.744141,51.735352 
z"/>
</svg>